<svg width="177" height="34" viewBox="0 0 177 34" fill="none" xmlns="http://www.w3.org/2000/svg">
<g id="Group">
<g id="Group_2">
<path id="Vector" d="M8.66446 0.436523L7.268 6.6651L0.728588 20.3794L0 10.8794L8.66446 0.436523Z" fill="#101820"/>
<path id="Vector_2" d="M9.87513 0.158203L25.154 12.0154L19.3396 24.6189L8.79297 6.72606L9.87513 0.158203Z" fill="#101820"/>
<path id="Vector_3" d="M31.9723 11.2783L29.9865 25.2962L20.7363 24.8676L26.94 12.6105L31.9723 11.2783Z" fill="#101820"/>
<path id="Vector_4" d="M7.84448 9.53906L1.70508 21.9069L17.8447 24.8891L7.84448 9.53906Z" fill="#101820"/>
<path id="Vector_5" d="M29.7679 26.9174L19.807 26.8066L13.6426 33.1352L29.7679 26.9174Z" fill="#101820"/>
<path id="Vector_6" d="M1.51465 23.4189L17.7114 26.4189L9.93267 33.8404L1.51465 23.4189Z" fill="#101820"/>
<path id="Vector_7" d="M12.1328 0.158203L26.7474 10.5832L31.5832 9.67607L12.1328 0.158203Z" fill="#101820"/>
</g>
<g id="Group_3">
<path id="Vector_8" d="M73.0564 22.4953V25.1525H61.5097L58.8525 22.4953V11.9453H61.5097V22.4953H73.0564Z" fill="#101820"/>
<path id="Vector_9" d="M125.137 16.3882L123.101 18.4239L125.137 20.456V25.1525H122.48V21.331L120.901 19.7525H112.658V25.156H110.001V11.9453H112.658V17.0953H120.901L122.48 15.5167V11.9489H125.137V16.3882Z" fill="#101820"/>
<path id="Vector_10" d="M148.389 14.6662V17.1733H159.932V19.859H148.389V22.3662H159.778V25.0519H148.389V25.059H148.125L145.703 22.6305V11.9805H159.778V14.6662H148.389Z" fill="#101820"/>
<path id="Vector_11" d="M176.028 22.4826V22.504L173.457 25.0754H164.771L162.178 22.4826V14.5111L164.771 11.9111H173.435L176.024 14.5076V14.5111H164.771V22.4826H176.028Z" fill="#101820"/>
<path id="Vector_12" d="M143.188 22.5233L143.192 22.859L140.87 25.1805H127.631V22.5233H140.781V19.7805H129.909L127.631 17.5019V14.3555L130.027 11.9805H143.192L143.188 14.6376H130.288V17.1233H141.392L143.188 18.9483V22.5233Z" fill="#101820"/>
<path id="Vector_13" d="M87.9435 11.9463H77.5791L74.9219 14.3284V22.4963L77.8576 25.1534H87.9435L90.6007 22.4963V14.3284L87.9435 11.9463ZM87.9435 22.4963H77.5791V14.6034H87.9435V22.4963Z" fill="#101820"/>
<path id="Vector_14" d="M56.2941 14.6376L53.6369 11.9805H40.6152V25.209H53.6369L56.2941 22.5519V19.934L55.1155 18.734L56.2941 17.5305V14.6376ZM53.6369 22.5519H43.2724V20.059H53.6369V22.5519ZM53.6369 17.4019H43.2724V14.634H53.6369V17.4019Z" fill="#101820"/>
<path id="Vector_15" d="M95.7461 22.4963H107.289L104.632 25.1534H96.0211L93.0889 22.4963V14.3284L95.7461 11.9463H104.632L107.289 14.6034H95.7461V22.4963Z" fill="#101820"/>
</g>
</g>
</svg>
